<?xml version="1.0" encoding="UTF-8"?>
<svg version="1.1" xmlns="http://www.w3.org/2000/svg" width="1500" height="844">
<path d="M0 0 C7.875 6.75 7.875 6.75 10.87548733 9.7524395 C11.56172001 10.43668114 12.2479527 11.12092277 12.95498031 11.825899 C13.68554344 12.55937498 14.41610658 13.29285095 15.16880798 14.04855347 C16.35996785 15.2384317 16.35996785 15.2384317 17.57519156 16.45234787 C20.22299859 19.09851396 22.86722674 21.74822691 25.51147461 24.39794922 C27.41374629 26.30050309 29.31621545 28.20285755 31.21893311 30.10496521 C35.30856605 34.19407515 39.39637177 38.28500431 43.48292351 42.37719345 C49.39131145 48.29372668 55.30247609 54.20747936 61.21431059 60.12056853 C70.80702314 69.71546683 80.39750283 79.31259371 89.98657227 88.91113281 C99.29854795 98.23229493 108.61157887 107.55240066 117.92602539 116.87109375 C118.78800201 117.73346446 118.78800201 117.73346446 119.66739231 118.6132568 C122.55040639 121.49757597 125.43344117 124.38187444 128.31648624 127.26616263 C152.21420074 151.17423493 176.10828888 175.08592844 200 199 C195.55619574 204.3184777 190.8692688 209.27481794 185.96490479 214.16880798 C185.17306376 214.96291456 184.38122274 215.75702114 183.56538653 216.57519156 C180.92388935 219.22299538 178.27885485 221.86723605 175.63378906 224.51147461 C173.73449537 226.41376167 171.83539337 228.31623844 169.93650818 230.21893311 C165.32268856 234.84103325 160.70611839 239.46037646 156.08843622 244.07861745 C152.33740695 247.83012261 148.58717 251.58241799 144.83748627 255.33526802 C134.2052091 265.97634062 123.57084927 276.61532552 112.93379799 287.25162583 C112.3612257 287.82415815 111.78865342 288.39669048 111.19873047 288.98657227 C110.62545945 289.55980241 110.05218843 290.13303255 109.46154556 290.7236333 C100.15062828 300.03414326 90.84472169 309.34964378 81.54104879 318.66739231 C71.98697283 328.23580884 62.42919704 337.8005157 52.86751533 347.361332 C47.49960383 352.72891097 42.13325512 358.09803156 36.77088165 363.47114372 C32.21075623 368.0403431 27.64722503 372.60610591 23.07915387 377.16736209 C20.74726341 379.49597302 18.41758988 381.82672895 16.09111595 384.16075325 C13.57436327 386.68514779 11.05161162 389.20338502 8.52716064 391.72007751 C7.78612602 392.4662557 7.0450914 393.21243388 6.28160119 393.98122352 C5.60902394 394.64920198 4.93644669 395.31718043 4.24348831 396.00540066 C3.661212 396.58789434 3.07893569 397.17038802 2.47901464 397.77053303 C1 399 1 399 -1 399 C-1 374.25 -1 349.5 -1 324 C-6.28 324 -11.56 324 -17 324 C-20.64722013 323.75086327 -24.29443812 323.50116006 -27.94021959 323.23178811 C-36.24819806 322.69675489 -44.5935706 322.85653932 -52.91452694 322.8613348 C-55.01433751 322.85888337 -57.1141476 322.85599832 -59.21395704 322.85272202 C-64.97422888 322.84498478 -70.73448841 322.84338169 -76.49476481 322.8427946 C-82.76507353 322.84106055 -89.03537585 322.83357239 -95.30568081 322.82681805 C-106.2916069 322.81577456 -117.27752982 322.80836212 -128.26346016 322.80341911 C-140.04656848 322.79809823 -151.8296725 322.79060961 -163.61277771 322.78049088 C-164.35794586 322.77985224 -165.10311401 322.77921361 -165.87086301 322.77855562 C-169.6707044 322.77528909 -173.47054575 322.77198743 -177.2703871 322.76867336 C-204.7503133 322.74477827 -232.23024115 322.72565549 -259.71017265 322.70907402 C-286.91924675 322.69264195 -314.1283182 322.67416101 -341.33738899 322.65294075 C-342.60549055 322.65195316 -342.60549055 322.65195316 -343.89921031 322.65094561 C-351.62078899 322.64493099 -359.34236764 322.63889117 -367.06394627 322.63282111 C-386.25784854 322.61773278 -405.45175105 322.60296047 -424.64565372 322.58840275 C-425.51964539 322.58773961 -426.39363705 322.58707647 -427.29411331 322.58639324 C-469.79576459 322.55417289 -512.29741821 322.52559375 -554.79907227 322.49731445 C-569.54577639 322.48750042 -584.2924805 322.47767028 -599.03918457 322.46777344 C-599.95379227 322.46715964 -600.86839998 322.46654584 -601.81072307 322.46591344 C-644.33861807 322.43735068 -686.86651107 322.40619912 -729.39440375 322.37438093 C-732.15577668 322.37231499 -734.91714962 322.37025017 -737.67852255 322.36818558 C-755.97847959 322.35450148 -774.2784366 322.34077279 -792.57839358 322.32701423 C-828.98991742 322.29963916 -865.40144146 322.27252609 -901.81296563 322.24559305 C-903.5469278 322.24431047 -905.28088997 322.2430277 -907.01485213 322.24174474 C-960.41789518 322.20223301 -1013.82093898 322.16390357 -1067.22398376 322.1268158 C-1069.37782799 322.1253193 -1071.53167221 322.1238228 -1073.68551644 322.1223262 C-1133.45701046 322.08083075 -1193.22850534 322.04057647 -1253 322 C-1253 240.82 -1253 159.64 -1253 76 C-1138.66657945 75.73707821 -1138.66657945 75.73707821 -1093.81933594 75.64428711 C-1092.43867769 75.64142686 -1091.05801944 75.6385664 -1089.67736119 75.63570575 C-1068.95272654 75.592785 -1048.22809035 75.55064947 -1027.50345302 75.50904435 C-1024.50891262 75.50303258 -1021.51437225 75.49701052 -1018.5198319 75.49097854 C-938.65612346 75.33012349 -858.79237972 75.18543756 -321.74736905 74.93717164 C-317.73944986 74.93761071 -313.73153066 74.93803715 -309.72361147 74.93846401 C-221.06604048 74.94792529 -132.40847117 74.9632612 -1 75 C-0.67 50.25 -0.34 25.5 0 0 Z " fill="#79ABCC" transform="translate(1253,444)"/>
</svg>
